<svg width="207" height="41" viewBox="0 0 207 41" fill="none" xmlns="http://www.w3.org/2000/svg">
<path d="M12.6693 29.7997C5.67821 29.7997 0 24.3829 0 17.3672C0 10.3515 5.61257 5 12.6037 5C16.9362 5 20.7763 6.9905 23.1723 10.6126C23.9601 11.7873 24.5837 13.1252 24.7806 14.5283H18.3475C17.3957 12.081 15.2294 10.3515 12.538 10.3515C8.6322 10.3515 6.1049 13.6473 6.1049 17.3346C6.1049 21.0219 8.63219 24.4482 12.5708 24.4482C15.2622 24.4482 17.2644 22.784 18.3475 20.4019H24.7806C23.4021 26.0471 18.446 29.7997 12.6693 29.7997Z" fill="#222222"/>
<path d="M68.5322 19.5534V29.3428H63.1494V19.8145C63.1494 17.8566 62.8868 15.8335 60.3924 15.8335C57.9964 15.8335 57.4056 17.4977 57.4056 19.5534V29.3428H52.0228V19.5861C52.0228 17.7587 51.5961 15.8335 49.3314 15.8335C46.8369 15.8335 46.2789 17.6935 46.2789 19.8145V29.3428H40.8961V17.9871L28.8832 35.3143H22.5486L26.1262 30.1912V11.4283H31.509V22.2944H31.6731L39.0909 11.4283H45.9179V13.3209H45.9835C47.0338 11.4935 48.9047 10.8083 50.9396 10.8083C53.27 10.8083 55.0424 11.983 56.1255 14.0061C57.4384 11.983 59.4077 10.8083 61.8365 10.8083C63.6089 10.8083 65.3157 11.3304 66.5629 12.603C68.6307 14.6914 68.5322 16.8124 68.5322 19.5534Z" fill="#222222"/>
<path d="M81.2344 29.9628C79.3964 29.9628 77.0004 29.1797 76.0814 27.4502H76.0157V29.3428H70.8627V5.45681H76.2455V12.8315C77.6568 11.3631 79.462 10.8083 81.4642 10.8083C82.7771 10.8083 84.0571 11.1346 85.2716 11.6894C88.7507 13.2883 90.3261 16.5514 90.3261 20.2714C90.3261 25.6555 86.847 29.9628 81.2344 29.9628ZM80.5452 15.8335C77.9851 15.8335 76.0814 17.824 76.0814 20.3366C76.0814 22.8819 77.8209 24.9376 80.4467 24.9376C83.0396 24.9376 84.9433 22.9145 84.9433 20.3693C84.9433 17.9219 83.0725 15.8335 80.5452 15.8335Z" fill="#222222"/>
<path d="M105.457 29.3428V27.4176H105.391C104.407 29.2449 102.076 29.9628 100.14 29.9628C94.593 29.9628 91.081 25.6881 91.081 20.3692C91.081 15.1482 94.7243 10.8083 100.14 10.8083C102.109 10.8083 104.341 11.5588 105.391 13.3209H105.457V11.4283H110.84V29.3428H105.457V29.3428ZM100.928 15.8335C98.3019 15.8335 96.4966 17.8892 96.4966 20.4345C96.4966 22.9144 98.4331 24.9376 100.96 24.9376C103.586 24.9376 105.457 22.9471 105.457 20.3692C105.457 17.7587 103.553 15.8335 100.928 15.8335Z" fill="#222222"/>
<path d="M113.367 29.3428V5.45681H118.75V29.3428H113.367Z" fill="#222222"/>
<path d="M188.062 15.3819C188.208 14.9444 188.438 14.5694 188.75 14.2569C189.083 13.9444 189.438 13.684 189.812 13.4757C190.208 13.2465 190.615 13.059 191.031 12.9132C191.448 12.7674 191.844 12.6424 192.219 12.5382C193.052 12.184 193.938 11.8507 194.875 11.5382C195.833 11.2049 196.802 10.9132 197.781 10.6632C198.781 10.4132 199.802 10.2569 200.844 10.1944C201.885 10.1111 202.979 10.2361 204.125 10.5694C204.188 10.7778 204.281 10.9757 204.406 11.1632C204.531 11.3507 204.656 11.5382 204.781 11.7257C204.927 11.9132 205.052 12.1007 205.156 12.2882C205.26 12.4549 205.323 12.6319 205.344 12.8194C205.552 13.0069 205.719 13.2153 205.844 13.4444C205.969 13.6528 205.99 13.934 205.906 14.2882C205.698 14.4549 205.49 14.6111 205.281 14.7569C205.094 14.8819 204.885 14.9965 204.656 15.1007C203.885 14.9132 203.104 14.8507 202.312 14.9132C201.521 14.9757 200.812 15.0278 200.188 15.0694C200 14.8819 199.771 14.7882 199.5 14.7882C199.25 14.7882 198.979 14.8299 198.688 14.9132C198.417 14.9965 198.135 15.0799 197.844 15.1632C197.573 15.2465 197.312 15.2674 197.062 15.2257C196.854 15.3924 196.594 15.5069 196.281 15.5694C195.99 15.6111 195.667 15.6528 195.312 15.6944C195.292 15.7986 195.312 15.8715 195.375 15.9132C195.438 15.934 195.448 15.9965 195.406 16.1007C195.531 16.2465 195.688 16.3507 195.875 16.4132C196.083 16.4757 196.292 16.5382 196.5 16.6007C196.729 16.6632 196.927 16.7465 197.094 16.8507C197.26 16.934 197.375 17.0799 197.438 17.2882C197.75 17.2882 198.021 17.3611 198.25 17.5069C198.479 17.6528 198.667 17.8299 198.812 18.0382C198.958 18.2465 199.062 18.4757 199.125 18.7257C199.208 18.9549 199.25 19.1632 199.25 19.3507C199.312 19.5174 199.385 19.5903 199.469 19.5694C199.552 19.5486 199.646 19.5903 199.75 19.6944C199.812 19.9653 199.969 20.2465 200.219 20.5382C200.469 20.809 200.667 21.1111 200.812 21.4444C200.854 21.9653 200.885 22.434 200.906 22.8507C200.927 23.2465 200.854 23.6528 200.688 24.0694C200.375 24.8403 199.938 25.5278 199.375 26.1319C198.833 26.7361 198.208 27.2778 197.5 27.7569C196.812 28.2153 196.073 28.6111 195.281 28.9444C194.49 29.2778 193.719 29.559 192.969 29.7882C192.885 29.7674 192.802 29.7674 192.719 29.7882C192.635 29.809 192.615 29.7569 192.656 29.6319C192.49 29.7778 192.302 29.8715 192.094 29.9132C191.906 29.9549 191.698 29.9653 191.469 29.9444C191.24 29.9444 191 29.934 190.75 29.9132C190.521 29.8924 190.302 29.9028 190.094 29.9444C189.948 29.7986 189.812 29.6528 189.688 29.5069C189.583 29.3819 189.5 29.2153 189.438 29.0069C189.333 29.0069 189.281 28.9549 189.281 28.8507C189.302 28.7465 189.271 28.6944 189.188 28.6944C189.312 28.4861 189.365 28.3715 189.344 28.3507C189.344 28.309 189.312 28.2778 189.25 28.2569C189.208 28.2361 189.167 28.2153 189.125 28.1944C189.083 28.1528 189.073 28.1007 189.094 28.0382C189.177 27.8715 189.208 27.684 189.188 27.4757C189.167 27.2465 189.146 27.0174 189.125 26.7882C189.104 26.559 189.115 26.3403 189.156 26.1319C189.219 25.9236 189.375 25.7569 189.625 25.6319C190.333 25.7153 191 25.6944 191.625 25.5694C192.271 25.4236 192.875 25.2257 193.438 24.9757C194 24.7257 194.531 24.4549 195.031 24.1632C195.552 23.8715 196.062 23.6111 196.562 23.3819C196.625 23.1944 196.708 23.0382 196.812 22.9132C196.938 22.7882 197.062 22.6736 197.188 22.5694C197.312 22.4653 197.427 22.3507 197.531 22.2257C197.635 22.1007 197.708 21.9444 197.75 21.7569C197.771 21.6111 197.729 21.5278 197.625 21.5069C197.542 21.4653 197.5 21.3819 197.5 21.2569L197.156 21.1632C196.76 20.934 196.312 20.7465 195.812 20.6007C195.312 20.434 194.885 20.2569 194.531 20.0694C194.302 20.1944 194.083 20.2257 193.875 20.1632C193.688 20.1007 193.438 20.0382 193.125 19.9757C192.417 19.934 191.729 19.8611 191.062 19.7569C190.417 19.6528 189.792 19.4653 189.188 19.1944C189.146 19.0903 189.094 18.9965 189.031 18.9132C188.969 18.8299 188.854 18.809 188.688 18.8507C188.562 18.684 188.438 18.5278 188.312 18.3819C188.188 18.2153 188.073 18.0382 187.969 17.8507C188.01 17.6007 188.042 17.3924 188.062 17.2257C188.083 17.0382 188.021 16.8611 187.875 16.6944C187.958 16.4236 188.021 16.2049 188.062 16.0382C188.104 15.8715 188.104 15.6528 188.062 15.3819Z" fill="#12B5CB"/>
<path d="M188.312 11.8507C188.333 11.9965 188.333 12.1111 188.312 12.1944C188.312 12.2569 188.302 12.3194 188.281 12.3819C188.281 12.4444 188.281 12.5174 188.281 12.6007C188.281 12.6632 188.302 12.7674 188.344 12.9132C187.906 13.6215 187.396 14.1111 186.812 14.3819C186.25 14.6319 185.635 14.8194 184.969 14.9444C184.302 15.0486 183.615 15.1632 182.906 15.2882C182.219 15.4132 181.531 15.684 180.844 16.1007C180.573 15.9965 180.323 15.9965 180.094 16.1007C179.885 16.2049 179.573 16.2361 179.156 16.1944C179.031 16.3194 178.875 16.4132 178.688 16.4757C178.5 16.5174 178.312 16.5694 178.125 16.6319C178.208 16.8194 178.24 17.0174 178.219 17.2257C178.219 17.4132 178.25 17.5694 178.312 17.6944C179.042 17.7569 179.844 17.7465 180.719 17.6632C181.615 17.5799 182.49 17.5278 183.344 17.5069C183.365 17.6111 183.354 17.684 183.312 17.7257C183.271 17.7465 183.26 17.7986 183.281 17.8819C183.427 17.9861 183.573 18.1215 183.719 18.2882C183.865 18.434 184.01 18.5799 184.156 18.7257C184.302 18.8715 184.448 18.9965 184.594 19.1007C184.76 19.184 184.948 19.2153 185.156 19.1944C185.24 19.3611 185.292 19.5486 185.312 19.7569C185.354 19.9444 185.333 20.1424 185.25 20.3507C184.917 20.5799 184.583 20.8194 184.25 21.0694C183.917 21.2986 183.562 21.5069 183.188 21.6944C182.833 21.8819 182.448 22.0382 182.031 22.1632C181.635 22.2674 181.188 22.309 180.688 22.2882C180.583 22.2882 180.5 22.2882 180.438 22.2882C180.396 22.2882 180.333 22.2569 180.25 22.1944C180.083 22.2986 179.844 22.3299 179.531 22.2882C179.24 22.2465 179.01 22.2778 178.844 22.3819C178.615 22.2778 178.333 22.2361 178 22.2569C177.688 22.2569 177.406 22.2153 177.156 22.1319C176.823 22.5694 176.521 23.0382 176.25 23.5382C175.979 24.0382 175.74 24.5694 175.531 25.1319C176.24 25.2361 176.823 25.2778 177.281 25.2569C177.76 25.2361 178.208 25.2049 178.625 25.1632C179.042 25.1007 179.469 25.0486 179.906 25.0069C180.344 24.9444 180.896 24.9236 181.562 24.9444C181.979 24.7153 182.469 24.5694 183.031 24.5069C183.615 24.4236 184.146 24.2986 184.625 24.1319C184.792 24.1944 184.938 24.309 185.062 24.4757C185.188 24.6215 185.302 24.7674 185.406 24.9132C185.531 25.0382 185.656 25.1528 185.781 25.2569C185.906 25.3611 186.062 25.4028 186.25 25.3819C186.333 25.4653 186.385 25.5694 186.406 25.6944C186.448 25.7986 186.479 25.9028 186.5 26.0069C186.521 26.1111 186.552 26.2049 186.594 26.2882C186.656 26.3507 186.75 26.3715 186.875 26.3507C186.562 27.0382 186.198 27.5694 185.781 27.9444C185.385 28.2986 184.927 28.5694 184.406 28.7569C183.885 28.9444 183.302 29.0903 182.656 29.1944C182.031 29.2986 181.333 29.4236 180.562 29.5694C180.375 29.6111 180.219 29.6007 180.094 29.5382C179.969 29.4965 179.823 29.4757 179.656 29.4757C179.177 29.5799 178.604 29.6736 177.938 29.7569C177.271 29.8403 176.594 29.8715 175.906 29.8507C175.219 29.8299 174.562 29.7361 173.938 29.5694C173.312 29.4236 172.802 29.1528 172.406 28.7569C172.24 28.6111 172.125 28.4444 172.062 28.2569C172.021 28.0486 171.885 27.8924 171.656 27.7882C171.635 27.5174 171.594 27.2153 171.531 26.8819C171.469 26.5486 171.406 26.2049 171.344 25.8507C171.281 25.4757 171.229 25.1111 171.188 24.7569C171.167 24.4028 171.188 24.0799 171.25 23.7882C171.312 23.4757 171.438 23.1944 171.625 22.9444C171.833 22.6944 171.906 22.4236 171.844 22.1319C171.948 22.1111 172.01 22.059 172.031 21.9757C172.052 21.8715 172.135 21.8299 172.281 21.8507C172.406 21.4757 172.542 21.1215 172.688 20.7882C172.833 20.4549 172.979 20.1319 173.125 19.8194C173.292 19.5069 173.448 19.1944 173.594 18.8819C173.76 18.5486 173.917 18.184 174.062 17.7882C173.771 17.5174 173.552 17.2257 173.406 16.9132C173.281 16.5799 173.188 16.2569 173.125 15.9444C173.062 15.6111 173.01 15.2778 172.969 14.9444C172.927 14.5903 172.854 14.2361 172.75 13.8819C172.958 13.5694 173.208 13.3194 173.5 13.1319C173.812 12.9236 174.146 12.7569 174.5 12.6319C174.854 12.5069 175.24 12.4028 175.656 12.3194C176.073 12.2361 176.51 12.1424 176.969 12.0382C177.802 11.7674 178.542 11.559 179.188 11.4132C179.854 11.2674 180.5 11.1528 181.125 11.0694C181.771 10.9653 182.438 10.8715 183.125 10.7882C183.812 10.7049 184.594 10.5799 185.469 10.4132C185.656 10.6007 185.833 10.6944 186 10.6944C186.083 10.5069 186.177 10.4549 186.281 10.5382C186.406 10.6007 186.458 10.5382 186.438 10.3507C186.646 10.7049 186.906 11.0069 187.219 11.2569C187.552 11.4861 187.917 11.684 188.312 11.8507Z" fill="#12B5CB"/>
<path d="M169.062 28.3194C168.062 28.3611 167.177 28.3403 166.406 28.2569C165.656 28.1736 164.917 27.9757 164.187 27.6632C164.146 27.6424 164.104 27.5903 164.062 27.5069C164.021 27.4236 163.979 27.3611 163.937 27.3194C163.812 27.2569 163.656 27.2361 163.469 27.2569C163.302 27.2569 163.156 27.2361 163.031 27.1944C162.865 27.1111 162.604 26.9549 162.25 26.7257C161.896 26.4757 161.573 26.2465 161.281 26.0382C160.906 25.7465 160.552 25.4549 160.219 25.1632C159.885 24.8715 159.594 24.559 159.344 24.2257C159.281 24.1424 159.198 24.1007 159.094 24.1007C158.99 24.0799 158.896 24.0486 158.812 24.0069C158.208 24.3819 157.698 24.8507 157.281 25.4132C156.865 25.9757 156.469 26.5486 156.094 27.1319C155.719 27.7153 155.323 28.2674 154.906 28.7882C154.49 29.309 153.958 29.7049 153.312 29.9757C153.125 29.9757 152.958 29.9444 152.812 29.8819C152.667 29.8194 152.531 29.7361 152.406 29.6319C152.281 29.5486 152.156 29.4653 152.031 29.3819C151.906 29.2986 151.771 29.2361 151.625 29.1944C151.625 28.9444 151.573 28.7153 151.469 28.5069C151.385 28.2986 151.292 28.1007 151.187 27.9132C151.104 27.7257 151.042 27.5486 151 27.3819C150.958 27.1944 151 27.0174 151.125 26.8507C151 26.7257 150.812 26.5903 150.562 26.4444C150.687 26.3194 150.74 26.2049 150.719 26.1007C150.719 25.9965 150.698 25.8924 150.656 25.7882C150.615 25.684 150.573 25.5694 150.531 25.4444C150.51 25.3194 150.542 25.1944 150.625 25.0694C150.729 25.0694 150.854 25.0486 151 25.0069C150.875 24.8403 150.812 24.7465 150.812 24.7257C150.833 24.684 150.812 24.6319 150.75 24.5694C150.708 24.4444 150.729 24.3715 150.812 24.3507C150.896 24.309 150.979 24.2674 151.062 24.2257C151.146 23.2049 151.323 22.2569 151.594 21.3819C151.865 20.5069 152.167 19.6632 152.5 18.8507C152.833 18.0382 153.156 17.2153 153.469 16.3819C153.802 15.5486 154.073 14.6528 154.281 13.6944C154.51 13.4653 154.687 13.1944 154.812 12.8819C154.958 12.5694 155.104 12.2569 155.25 11.9444C155.417 11.6319 155.594 11.3299 155.781 11.0382C155.99 10.7257 156.271 10.4757 156.625 10.2882C156.917 10.309 157.177 10.3924 157.406 10.5382C157.635 10.6632 157.917 10.7153 158.25 10.6944C158.312 10.7986 158.365 10.9028 158.406 11.0069C158.469 11.1111 158.542 11.2153 158.625 11.3194L159.094 11.2257C159.323 11.4132 159.521 11.6528 159.687 11.9444C159.875 12.2153 160 12.5069 160.062 12.8194C160.125 13.1319 160.115 13.434 160.031 13.7257C159.948 13.9965 159.75 14.2153 159.437 14.3819C159.458 14.4861 159.458 14.5694 159.437 14.6319C159.437 14.6736 159.427 14.7153 159.406 14.7569C159.385 14.7986 159.375 14.8403 159.375 14.8819C159.375 14.9236 159.406 14.9861 159.469 15.0694C159.052 15.3819 158.74 15.8194 158.531 16.3819C158.323 16.9444 158.208 17.4444 158.187 17.8819C158.437 17.6319 158.708 17.3924 159 17.1632C159.312 16.9132 159.625 16.6736 159.937 16.4444C160.271 16.2153 160.583 15.9965 160.875 15.7882C161.187 15.5799 161.469 15.3715 161.719 15.1632C162.406 14.5382 163.062 14.0382 163.687 13.6632C164.333 13.2674 165.01 12.8299 165.719 12.3507C165.885 12.309 166.01 12.309 166.094 12.3507C166.198 12.3715 166.302 12.4028 166.406 12.4444C166.406 12.3194 166.365 12.2465 166.281 12.2257C166.219 12.2049 166.198 12.1215 166.219 11.9757C166.531 11.8924 166.802 11.7986 167.031 11.6944C167.26 11.5694 167.51 11.4549 167.781 11.3507C167.969 11.5382 168.146 11.7361 168.312 11.9444C168.479 12.1319 168.708 12.2465 169 12.2882C169.104 12.5174 169.229 12.6944 169.375 12.8194C169.521 12.9236 169.667 13.0278 169.812 13.1319C169.958 13.2361 170.083 13.3611 170.187 13.5069C170.312 13.6528 170.385 13.8819 170.406 14.1944C170.323 14.3403 170.229 14.4965 170.125 14.6632C170.042 14.8299 169.958 15.0278 169.875 15.2569C169.458 15.6319 169.031 15.9653 168.594 16.2569C168.177 16.5486 167.75 16.8299 167.312 17.1007C166.875 17.3715 166.427 17.6424 165.969 17.9132C165.51 18.184 165.042 18.5069 164.562 18.8819C164.458 19.0278 164.323 19.1632 164.156 19.2882C164.01 19.3924 163.854 19.5069 163.687 19.6319C163.521 19.7361 163.365 19.8507 163.219 19.9757C163.073 20.1007 162.958 20.2465 162.875 20.4132C162.812 20.434 162.75 20.4444 162.687 20.4444C162.625 20.4444 162.562 20.4549 162.5 20.4757C162.437 20.6215 162.333 20.7361 162.187 20.8194C162.062 20.9028 161.979 21.0174 161.937 21.1632C162.25 21.8299 162.656 22.3403 163.156 22.6944C163.656 23.0486 164.219 23.309 164.844 23.4757C165.469 23.6215 166.146 23.7049 166.875 23.7257C167.604 23.7257 168.365 23.7257 169.156 23.7257C169.24 23.7049 169.271 23.6632 169.25 23.6007C169.25 23.5174 169.302 23.4861 169.406 23.5069C169.906 23.6736 170.292 23.9132 170.562 24.2257C170.833 24.5174 171.156 24.809 171.531 25.1007C171.49 25.8924 171.25 26.5486 170.812 27.0694C170.375 27.5903 169.792 28.0069 169.062 28.3194Z" fill="#12B5CB"/>
<path d="M146.594 27.2569C146.698 27.8819 146.656 28.3715 146.469 28.7257C146.302 29.0799 146.052 29.3403 145.719 29.5069C145.406 29.6944 145.042 29.7986 144.625 29.8194C144.208 29.8403 143.812 29.8194 143.438 29.7569C143.229 29.4653 143.042 29.1007 142.875 28.6632C142.708 28.2257 142.552 27.7778 142.406 27.3194C142.26 26.8403 142.125 26.3715 142 25.9132C141.896 25.4549 141.802 25.0486 141.719 24.6944C141.823 24.4444 141.885 24.1632 141.906 23.8507C141.948 23.5174 141.969 23.184 141.969 22.8507C141.99 22.5174 142 22.184 142 21.8507C142.021 21.4965 142.052 21.1632 142.094 20.8507C142.24 19.9757 142.448 19.1424 142.719 18.3507C143.01 17.559 143.24 16.7361 143.406 15.8819C143.448 15.6944 143.427 15.5174 143.344 15.3507C143.281 15.184 143.271 15.0278 143.312 14.8819C143.333 14.7986 143.396 14.7465 143.5 14.7257C143.604 14.684 143.667 14.6111 143.688 14.5069C143.75 14.2778 143.76 14.0903 143.719 13.9444C143.698 13.7986 143.74 13.6215 143.844 13.4132C143.948 13.2465 144.073 13.0069 144.219 12.6944C144.385 12.3611 144.448 12.0174 144.406 11.6632C144.594 11.5382 144.771 11.3924 144.938 11.2257C145.104 11.059 145.271 10.9132 145.438 10.7882C145.625 10.6424 145.823 10.5174 146.031 10.4132C146.26 10.309 146.531 10.2569 146.844 10.2569C147.01 10.4653 147.115 10.6944 147.156 10.9444C147.219 11.1944 147.271 11.4444 147.312 11.6944C147.375 11.9444 147.458 12.184 147.562 12.4132C147.667 12.6215 147.844 12.7882 148.094 12.9132C148.094 13.0799 148.094 13.2882 148.094 13.5382C148.094 13.7882 148.104 14.0382 148.125 14.2882C148.146 14.5174 148.188 14.7361 148.25 14.9444C148.333 15.1319 148.458 15.2569 148.625 15.3194C148.25 16.3194 147.896 17.309 147.562 18.2882C147.25 19.2674 146.99 20.2569 146.781 21.2569C146.573 22.2361 146.438 23.2257 146.375 24.2257C146.333 25.2257 146.406 26.2361 146.594 27.2569Z" fill="#12B5CB"/>
<path d="M120.594 14.3507C119.719 13.9965 118.99 13.4965 118.406 12.8507C117.844 12.2049 117.385 11.4444 117.031 10.5694C117.24 10.0069 117.573 9.53819 118.031 9.16319C118.49 8.76736 119 8.43403 119.562 8.16319C120.146 7.89236 120.76 7.67361 121.406 7.50694C122.052 7.34028 122.677 7.19444 123.281 7.06944C123.406 7.11111 123.469 7.11111 123.469 7.06944C123.469 7.02778 123.521 7.04861 123.625 7.13194C124.375 6.90278 125.24 6.68403 126.219 6.47569C127.198 6.24653 128.24 6.16319 129.344 6.22569C129.49 6.14236 129.667 6.10069 129.875 6.10069C130.083 6.07986 130.302 6.06944 130.531 6.06944C130.76 6.06944 130.979 6.06944 131.188 6.06944C131.396 6.04861 131.573 6.00694 131.719 5.94444C131.844 6.09028 132.031 6.18403 132.281 6.22569C132.531 6.24653 132.792 6.35069 133.062 6.53819C133.146 6.55903 133.146 6.52778 133.062 6.44444C132.979 6.34028 132.99 6.26736 133.094 6.22569C133.365 6.22569 133.604 6.28819 133.812 6.41319C134.021 6.53819 134.208 6.68403 134.375 6.85069C134.562 6.99653 134.729 7.13194 134.875 7.25694C135.042 7.38194 135.219 7.44444 135.406 7.44444C135.594 7.67361 135.812 7.89236 136.062 8.10069C136.333 8.28819 136.583 8.48611 136.812 8.69444C137.062 8.90278 137.26 9.13194 137.406 9.38194C137.573 9.63194 137.656 9.91319 137.656 10.2257C137.635 10.3507 137.677 10.4236 137.781 10.4444C137.885 10.4653 137.958 10.5278 138 10.6319C138.021 11.4028 137.896 12.0694 137.625 12.6319C137.375 13.1944 137.052 13.7153 136.656 14.1944C136.26 14.6528 135.833 15.0903 135.375 15.5069C134.938 15.9236 134.531 16.3715 134.156 16.8507C134.406 17.1632 134.688 17.4549 135 17.7257C135.333 17.9757 135.667 18.2257 136 18.4757C136.333 18.7257 136.646 18.9965 136.938 19.2882C137.25 19.559 137.51 19.8715 137.719 20.2257C137.781 20.3507 137.917 20.434 138.125 20.4757C138.188 20.7257 138.271 20.9861 138.375 21.2569C138.5 21.5069 138.615 21.7569 138.719 22.0069C138.823 22.2361 138.885 22.4444 138.906 22.6319C138.927 22.8194 138.875 22.9757 138.75 23.1007C138.896 23.184 138.979 23.3194 139 23.5069C139.021 23.6736 139.021 23.809 139 23.9132C138.542 24.4757 138.229 24.8715 138.062 25.1007C137.896 25.3299 137.771 25.4965 137.688 25.6007C137.604 25.7049 137.521 25.7986 137.438 25.8819C137.354 25.9653 137.167 26.1319 136.875 26.3819C135.771 27.0486 134.615 27.6528 133.406 28.1944C132.219 28.7153 130.979 29.0694 129.688 29.2569C129.583 29.4028 129.427 29.5174 129.219 29.6007C129.031 29.7049 128.812 29.7882 128.562 29.8507C128.312 29.9132 128.042 29.9653 127.75 30.0069C127.479 30.0486 127.229 30.0903 127 30.1319C126.896 30.0903 126.833 30.0174 126.812 29.9132C126.812 29.8299 126.76 29.7674 126.656 29.7257C126.635 29.9757 126.521 30.1007 126.312 30.1007C126.125 30.1215 125.885 30.0799 125.594 29.9757C125.302 29.8715 125 29.7257 124.688 29.5382C124.375 29.3507 124.104 29.1736 123.875 29.0069C123.771 29.1944 123.635 29.3924 123.469 29.6007C123.323 29.809 123.167 29.9549 123 30.0382C122.708 29.9965 122.49 29.9653 122.344 29.9444C122.219 29.9236 122.094 29.9757 121.969 30.1007C121.802 30.0174 121.677 29.9236 121.594 29.8194C121.51 29.7361 121.427 29.6424 121.344 29.5382C121.26 29.4549 121.167 29.3819 121.062 29.3194C120.958 29.2361 120.802 29.1632 120.594 29.1007C120.635 28.9965 120.604 28.8403 120.5 28.6319C120.396 28.4028 120.25 28.2674 120.062 28.2257C120.167 28.059 120.125 27.8507 119.938 27.6007C119.75 27.3299 119.604 27.0278 119.5 26.6944C119.521 26.5486 119.531 26.4028 119.531 26.2569C119.552 26.0903 119.573 25.9444 119.594 25.8194C119.635 25.6736 119.688 25.5486 119.75 25.4444C119.812 25.3403 119.917 25.2674 120.062 25.2257C120.042 24.9549 119.958 24.6944 119.812 24.4444C120 24.2986 120.125 24.1215 120.188 23.9132C120.25 23.684 120.302 23.4549 120.344 23.2257C120.406 22.9965 120.479 22.7778 120.562 22.5694C120.646 22.3403 120.781 22.1528 120.969 22.0069C120.927 21.9444 120.885 21.8924 120.844 21.8507C120.802 21.809 120.781 21.7361 120.781 21.6319C121.094 21.1111 121.312 20.6736 121.438 20.3194C121.562 19.9444 121.656 19.5903 121.719 19.2569C121.802 18.9028 121.885 18.5278 121.969 18.1319C122.052 17.7361 122.219 17.2361 122.469 16.6319C122.448 16.2569 122.49 15.9236 122.594 15.6319C122.698 15.3403 122.802 15.059 122.906 14.7882C123.031 14.4965 123.125 14.1944 123.188 13.8819C123.25 13.5694 123.24 13.2049 123.156 12.7882C122.802 12.8299 122.542 12.9549 122.375 13.1632C122.229 13.3715 122.135 13.6528 122.094 14.0069C121.906 14.1736 121.667 14.2569 121.375 14.2569C121.083 14.2361 120.823 14.2674 120.594 14.3507ZM134.344 20.3819C133.552 19.9444 132.823 19.684 132.156 19.6007C131.51 19.5174 130.885 19.5278 130.281 19.6319C129.698 19.7153 129.135 19.8403 128.594 20.0069C128.052 20.1736 127.51 20.2986 126.969 20.3819C126.698 21.0903 126.417 21.8715 126.125 22.7257C125.833 23.5799 125.552 24.4132 125.281 25.2257C126.031 25.1215 126.719 24.9653 127.344 24.7569C127.969 24.5486 128.573 24.3194 129.156 24.0694C129.74 23.7986 130.312 23.5382 130.875 23.2882C131.438 23.0174 132.021 22.7674 132.625 22.5382C132.688 22.2882 132.823 22.0903 133.031 21.9444C133.24 21.7986 133.448 21.6632 133.656 21.5382C133.865 21.3924 134.042 21.2361 134.188 21.0694C134.333 20.9028 134.385 20.6736 134.344 20.3819ZM132.156 10.6007C130.865 10.559 129.594 10.6736 128.344 10.9444C127.094 11.2153 126.042 11.6111 125.188 12.1319C125.604 12.4861 126.031 12.7986 126.469 13.0694C126.927 13.3403 127.271 13.7049 127.5 14.1632C128.5 13.7674 129.375 13.2674 130.125 12.6632C130.875 12.0382 131.552 11.3507 132.156 10.6007Z" fill="#12B5CB"/>
</svg>
